<svg width="36" height="36" viewBox="0 0 36 36" fill="none" xmlns="http://www.w3.org/2000/svg">
<path d="M18.0008 9.66666C13.3966 9.66666 9.66748 13.3958 9.66748 18C9.66748 21.6875 12.0529 24.8021 15.3654 25.9062C15.7821 25.9792 15.9383 25.7292 15.9383 25.5104C15.9383 25.3125 15.9279 24.6562 15.9279 23.9583C13.8341 24.3437 13.2925 23.4479 13.1258 22.9792C13.0321 22.7396 12.6258 22 12.2716 21.8021C11.98 21.6458 11.5633 21.2604 12.2612 21.25C12.9175 21.2396 13.3862 21.8542 13.5425 22.1042C14.2925 23.3646 15.4904 23.0104 15.9696 22.7917C16.0425 22.25 16.2612 21.8854 16.5008 21.6771C14.6466 21.4687 12.7091 20.75 12.7091 17.5625C12.7091 16.6562 13.0321 15.9062 13.5633 15.3229C13.48 15.1146 13.1883 14.2604 13.6466 13.1146C13.6466 13.1146 14.3446 12.8958 15.9383 13.9687C16.605 13.7812 17.3133 13.6875 18.0217 13.6875C18.73 13.6875 19.4383 13.7812 20.105 13.9687C21.6987 12.8854 22.3967 13.1146 22.3967 13.1146C22.855 14.2604 22.5633 15.1146 22.48 15.3229C23.0112 15.9062 23.3342 16.6458 23.3342 17.5625C23.3342 20.7604 21.3862 21.4687 19.5321 21.6771C19.8342 21.9375 20.0946 22.4375 20.0946 23.2187C20.0946 24.3333 20.0842 25.2292 20.0842 25.5104C20.0842 25.7292 20.2404 25.9896 20.6571 25.9062C24.0492 24.7611 26.3332 21.5802 26.3342 18C26.3342 13.3958 22.605 9.66666 18.0008 9.66666Z" fill="#4338CA"/>
</svg>
