<svg width="36" height="36" viewBox="0 0 36 36" fill="none" xmlns="http://www.w3.org/2000/svg">
<path d="M18.8567 9.66748C19.7946 9.66903 20.2698 9.67399 20.6805 9.68621L20.8422 9.69151C21.0291 9.69815 21.2134 9.70648 21.4357 9.7169C22.3224 9.75786 22.9273 9.89815 23.4586 10.1044C24.0078 10.3162 24.4717 10.6023 24.9349 11.0655C25.3974 11.5287 25.6836 11.994 25.8961 12.5419C26.1016 13.0724 26.2419 13.678 26.2836 14.5648C26.2935 14.787 26.3015 14.9714 26.3081 15.1582L26.3133 15.32C26.3255 15.7306 26.3311 16.2059 26.3328 17.1437L26.3335 17.7652C26.3336 17.8411 26.3336 17.9194 26.3336 18.0002L26.3335 18.2353L26.333 18.8567C26.3314 19.7946 26.3265 20.2698 26.3142 20.6805L26.3089 20.8422C26.3023 21.0291 26.294 21.2134 26.2836 21.4357C26.2426 22.3224 26.1016 22.9273 25.8961 23.4586C25.6842 24.0078 25.3974 24.4717 24.9349 24.9349C24.4717 25.3974 24.0057 25.6836 23.4586 25.8961C22.9273 26.1016 22.3224 26.2419 21.4357 26.2836C21.2134 26.2935 21.0291 26.3015 20.8422 26.3081L20.6805 26.3133C20.2698 26.3255 19.7946 26.3311 18.8567 26.3328L18.2353 26.3335C18.1594 26.3336 18.0811 26.3336 18.0002 26.3336L17.7652 26.3335L17.1437 26.333C16.2059 26.3314 15.7306 26.3265 15.32 26.3142L15.1582 26.3089C14.9714 26.3023 14.787 26.294 14.5648 26.2836C13.678 26.2426 13.0738 26.1016 12.5419 25.8961C11.9933 25.6842 11.5287 25.3974 11.0655 24.9349C10.6023 24.4717 10.3169 24.0057 10.1044 23.4586C9.89815 22.9273 9.75856 22.3224 9.7169 21.4357C9.707 21.2134 9.69892 21.0291 9.69238 20.8422L9.68714 20.6805C9.67495 20.2698 9.66939 19.7946 9.66759 18.8567L9.66748 17.1437C9.66903 16.2059 9.67399 15.7306 9.68621 15.32L9.69151 15.1582C9.69815 14.9714 9.70648 14.787 9.7169 14.5648C9.75786 13.6773 9.89815 13.0731 10.1044 12.5419C10.3162 11.9933 10.6023 11.5287 11.0655 11.0655C11.5287 10.6023 11.994 10.3169 12.5419 10.1044C13.0731 9.89815 13.6773 9.75856 14.5648 9.7169C14.787 9.707 14.9714 9.69892 15.1582 9.69238L15.32 9.68714C15.7306 9.67495 16.2059 9.66939 17.1437 9.66759L18.8567 9.66748ZM18.0002 13.8336C15.6978 13.8336 13.8336 15.6998 13.8336 18.0002C13.8336 20.3027 15.6998 22.1669 18.0002 22.1669C20.3027 22.1669 22.1669 20.3006 22.1669 18.0002C22.1669 15.6978 20.3006 13.8336 18.0002 13.8336ZM18.0002 15.5002C19.381 15.5002 20.5002 16.6191 20.5002 18.0002C20.5002 19.381 19.3813 20.5002 18.0002 20.5002C16.6195 20.5002 15.5002 19.3813 15.5002 18.0002C15.5002 16.6195 16.6191 15.5002 18.0002 15.5002ZM22.3752 12.5836C21.8008 12.5836 21.3336 13.0501 21.3336 13.6245C21.3336 14.1989 21.8002 14.6662 22.3752 14.6662C22.9496 14.6662 23.4169 14.1996 23.4169 13.6245C23.4169 13.0501 22.9488 12.5828 22.3752 12.5836Z" fill="#4338CA"/>
</svg>
