<svg width="36" height="36" viewBox="0 0 36 36" fill="none" xmlns="http://www.w3.org/2000/svg">
<path d="M23.2802 23.2825H21.0589V19.8018C21.0589 18.9718 21.0421 17.9037 19.9014 17.9037C18.7433 17.9037 18.5664 18.8069 18.5664 19.7406V23.2825H16.3452V16.125H18.4789V17.1006H18.5077C18.8058 16.5381 19.5308 15.9444 20.6139 15.9444C22.8646 15.9444 23.2808 17.4257 23.2808 19.3538L23.2802 23.2825ZM13.8364 15.1456C13.1214 15.1456 12.5471 14.5669 12.5471 13.855C12.5471 13.1437 13.1221 12.5656 13.8364 12.5656C14.5489 12.5656 15.1264 13.1437 15.1264 13.855C15.1264 14.5669 14.5483 15.1456 13.8364 15.1456ZM14.9502 23.2825H12.7227V16.125H14.9502V23.2825ZM24.3914 10.5H11.6077C10.9958 10.5 10.5008 10.9838 10.5008 11.5806V24.4194C10.5008 25.0168 10.9958 25.5 11.6077 25.5H24.3896C25.0008 25.5 25.5008 25.0168 25.5008 24.4194V11.5806C25.5008 10.9838 25.0008 10.5 24.3896 10.5H24.3914Z" fill="#4338CA"/>
</svg>
